<svg width="612" height="612" viewBox="0 0 612 612" fill="none" xmlns="http://www.w3.org/2000/svg">
<path fill-rule="evenodd" clip-rule="evenodd" d="M502 306C502 414.248 414.248 502 306 502C295.876 502 285.93 501.232 276.219 499.752C291.191 495.533 304.671 490.208 317.933 484.966L317.946 484.961C347.839 473.159 376.154 461.98 416.435 467.477C420.307 464.816 424.08 462.02 427.746 459.096C426.598 458.869 425.449 458.653 424.298 458.448C378.797 450.323 348.294 462.372 316.007 475.125L316.002 475.127C296.773 482.734 277.04 490.524 252.92 494.728C242.404 491.776 232.245 487.969 222.524 483.386C262.584 482.202 290.718 471.097 317.933 460.339L317.946 460.334C349.526 447.866 379.346 436.092 423.374 443.943C429.162 444.984 434.906 446.306 440.598 447.907C443.344 445.3 446.016 442.615 448.609 439.855C440.606 437.296 432.497 435.282 424.298 433.821C378.797 425.697 348.294 437.745 316.007 450.498L316.002 450.5C288.857 461.238 260.704 472.344 220.627 473.205C214.377 473.329 208.534 473.183 203.032 472.806C194.513 467.536 186.429 461.632 178.844 455.16C189.663 457.48 201.767 458.881 215.988 458.881C217.604 458.881 219.137 458.87 220.743 458.807C261.754 457.904 290.316 446.631 317.933 435.714L317.946 435.709C349.526 423.241 379.346 411.467 423.374 419.318C435.118 421.429 446.677 424.7 457.999 429.109C460.153 426.456 462.24 423.746 464.256 420.982C451.235 415.56 437.889 411.619 424.298 409.196C378.797 401.072 348.294 413.12 316.007 425.873L316.002 425.875C288.857 436.613 260.704 447.719 220.627 448.58C196.9 449.05 179.052 445.633 163.391 440.457C157.377 434.082 151.787 427.303 146.664 420.166C165.576 428.072 186.109 434.254 215.988 434.254C217.604 434.254 219.137 434.243 220.743 434.18C261.754 433.277 290.316 422.004 317.933 411.087L317.946 411.082C349.526 398.614 379.346 386.841 423.374 394.691C439.828 397.649 455.921 402.883 471.503 410.336C473.246 407.587 474.922 404.792 476.53 401.954C459.666 393.582 442.195 387.759 424.298 384.569C378.797 376.445 348.294 388.493 316.007 401.246L316.002 401.248C288.857 411.986 260.704 423.092 220.627 423.953C182.725 424.704 159.824 415.536 136.877 405.125C133.433 399.262 130.285 393.203 127.455 386.971C128.107 387.27 128.759 387.568 129.41 387.867C153.804 399.046 176.898 409.627 215.988 409.627C217.604 409.627 219.137 409.616 220.743 409.553C235.598 409.226 248.82 407.539 260.955 405H262L261.972 404.785C282.894 400.304 300.6 393.312 317.933 386.46L317.946 386.455C349.526 373.987 379.346 362.214 423.374 370.064C443.618 373.703 463.314 380.787 482.185 391.209C483.591 388.325 484.928 385.402 486.195 382.441C466.373 371.293 445.638 363.746 424.298 359.942C378.797 351.818 348.294 363.866 316.007 376.619L316.002 376.621C298.874 383.397 281.345 390.319 260.672 394.721L248.525 300.731C248.977 301.193 249.431 301.653 249.888 302.11C280.55 332.773 322.137 349.999 365.5 349.999C386.984 350.058 408.266 345.854 428.114 337.632C447.962 329.41 465.983 317.332 481.132 302.098C484.419 298.809 487.557 295.389 490.54 291.848L501.638 293.988C501.878 297.961 502 301.966 502 306ZM310.502 501.925C340.772 501.095 369.336 493.437 394.711 480.435C364.479 480.606 340.768 489.972 316.007 499.752L316.002 499.754C314.174 500.477 312.342 501.202 310.502 501.925Z" fill="white"/>
<path d="M220.734 399.324L235.434 285.57C226.762 274.185 219.658 261.757 214.264 248.625L113.674 268.037C111.263 280.319 110 293.012 110 306C110 329.81 114.246 352.628 122.021 373.739C125.294 375.199 128.476 376.658 131.604 378.091C156.408 389.448 179.826 400.134 220.627 399.326C220.663 399.325 220.698 399.324 220.734 399.324Z" fill="white"/>
<path d="M236.123 244.406L217.465 248.007C222.362 259.749 228.618 270.788 236.034 280.928L241 242.5L247.815 295.234C277.122 326.929 319.036 346.806 365.5 346.806C413.937 346.806 457.429 325.208 486.849 291.136L429.633 280.103C411.375 292.651 389.28 300 365.5 300C326.223 300 291.541 279.95 271.157 249.544L245.885 244.671C243.736 244.256 243.718 241.186 245.863 240.748L263.893 237.06C256.283 221.828 252 204.656 252 186.5C252 157.861 262.655 131.67 280.21 111.682C256.748 114.765 234.593 121.999 214.507 132.621C208.478 149.466 205.193 167.605 205.193 186.496C205.193 203.664 207.907 220.211 212.927 235.731L236.145 240.483C238.289 240.922 238.272 243.991 236.123 244.406Z" fill="white"/>
<path d="M274.992 250.284L425.81 279.366C408.445 290.682 387.727 297.263 365.5 297.263C328.155 297.263 295.066 278.684 274.992 250.284Z" fill="white"/>
<path d="M301.004 229.47L266.673 236.491C259.041 221.465 254.737 204.475 254.737 186.5C254.737 157.441 265.985 130.96 284.357 111.181C291.464 110.401 298.685 110 306 110C317.85 110 329.454 111.052 340.725 113.067C329.46 116.867 319.176 123.224 310.706 131.693C299.866 142.529 292.484 156.337 289.491 171.369C286.499 186.401 288.031 201.984 293.894 216.145C295.834 220.83 298.219 225.291 301.004 229.47Z" fill="white"/>
<path d="M324.123 124.61C331.211 119.871 339.022 116.411 347.2 114.338C379.951 121.344 409.669 136.532 434.11 157.659C437.919 166.703 439.941 176.497 439.952 186.5C439.953 191.515 439.447 196.492 438.456 201.359L402.932 208.624C406.863 201.98 408.991 194.35 409 186.5C409 177.896 406.449 169.486 401.669 162.332C396.889 155.179 390.095 149.603 382.147 146.311C374.198 143.019 365.452 142.157 357.014 143.836C348.575 145.514 340.824 149.657 334.741 155.741C328.657 161.824 324.514 169.575 322.836 178.013C321.157 186.452 322.019 195.198 325.311 203.147C328.354 210.493 333.348 216.854 339.735 221.549L304.234 228.81C298.49 220.491 294.473 211.05 292.481 201.044C289.606 186.603 291.077 171.633 296.709 158.028C302.341 144.423 311.881 132.794 324.123 124.61Z" fill="white"/>
<path d="M443 186.5C443 178.155 441.653 169.912 439.051 162.077C449.828 172.045 459.483 183.208 467.806 195.356L441.674 200.701C442.545 196.05 442.995 191.298 443 186.5Z" fill="white"/>
<path fill-rule="evenodd" clip-rule="evenodd" d="M398.894 208.811C398.727 209.061 398.558 209.308 398.387 209.554L344.293 220.617C341.708 219.008 339.301 217.103 337.125 214.928C331.507 209.315 327.681 202.163 326.129 194.374C324.578 186.586 325.371 178.513 328.409 171.176C331.446 163.839 336.591 157.567 343.194 153.155C349.796 148.742 357.559 146.387 365.5 146.387C376.141 146.387 386.348 150.612 393.875 158.134C401.403 165.656 405.636 175.858 405.644 186.5C405.65 194.441 403.301 202.205 398.894 208.811ZM378 186.5C378 193.403 372.404 199 365.5 199C358.596 199 353 193.403 353 186.5C353 179.596 358.596 174 365.5 174C372.404 174 378 179.596 378 186.5Z" fill="white"/>
<path d="M202 186.496C202.001 168.892 204.844 151.465 210.365 134.875C175.983 154.131 147.999 183.448 130.398 218.839L209.36 235.001C204.524 219.435 202 203.095 202 186.496Z" fill="white"/>
</svg>
