<svg width="1669" height="623" viewBox="0 0 1669 623" fill="none" xmlns="http://www.w3.org/2000/svg">
<path d="M785.58 248.131V253.581H737.12V250.851L785.58 248.131ZM845.21 318.131C845.21 362.511 826.97 378.031 803.55 378.031C779.55 378.031 768.43 363.601 768.43 329.561V263.101H737.12V257.931H774.69V332.261C774.69 360.311 784.5 372.561 804.37 372.561C825.88 372.561 838.68 355.951 838.68 317.831V267.191H845.21V318.131ZM764.07 330.651C764.07 363.051 773.88 382.381 803.55 382.381C825.61 382.381 838.95 370.671 845.21 349.161C843.58 373.401 831.87 387.831 805.21 387.831C771.21 387.831 757.56 367.411 757.56 329.831V267.191H764.09L764.07 330.651ZM785.58 332.281C785.58 346.171 787.49 360.601 789.67 364.961C782.59 359.781 779.05 347.531 779.05 330.381V257.931H785.58V332.281ZM866.72 253.601H818V250.871L866.73 248.151L866.72 253.601ZM849.57 375.831V263.101H818V257.931H855.84V370.651H889.84V375.831H849.57ZM849.57 385.091V379.641H889.87V382.361L849.57 385.091ZM860.19 366.301V257.931H866.72V366.301H860.19Z" fill="black"/>
<path d="M958.21 305.581C945.14 300.681 929.08 295.511 929.08 282.711C929.08 277.261 932.08 271.001 935.08 268.821C934.031 271.983 933.481 275.289 933.45 278.621C933.45 291.151 947.33 296.051 962.85 301.501C982.73 308.301 1005.6 317.021 1005.6 345.061C1005.6 372.831 983.54 387.541 953.05 387.541C925.28 387.541 904.05 375.011 904.05 355.411C904.05 344.241 910.86 335.801 920.39 335.801C926.1 335.801 934 338.801 934 349.141C934 355.141 931.82 359.491 931.28 360.041L926.63 356.001C927.437 353.816 927.896 351.518 927.99 349.191C927.99 344.021 924.45 341.841 920.37 341.841C913.83 341.841 909.47 347.291 909.47 355.191C909.47 371.791 929.9 383.191 953.86 383.191C981.36 383.191 998.51 367.941 998.51 345.341C998.51 320.831 978.09 312.931 958.21 305.581ZM955 248.131C984.13 248.131 1002.1 259.841 1002.1 277.541C1002.1 288.971 995.02 297.141 985.76 297.141C980.05 297.141 971.88 294.141 971.88 283.531C971.793 279.77 972.838 276.07 974.88 272.911L979.51 276.991C978.665 279.165 978.205 281.469 978.15 283.801C978.15 289.241 981.69 291.151 985.77 291.151C992.04 291.151 996.39 285.701 996.39 277.811C996.39 263.651 981.15 252.491 954.73 252.491C929.41 252.491 914.44 263.921 914.44 283.251C914.44 306.401 935.44 314.561 953.92 321.371C969.17 327.371 983.59 332.541 983.59 345.601C983.59 351.871 980.59 359.761 976.52 363.601C979.24 357.881 979.24 354.881 979.24 352.981C979.24 337.181 963.99 331.741 947.93 325.751C928.87 318.671 908.17 311.321 908.17 285.181C908.11 258.751 928.81 248.131 955 248.131ZM923.36 349.691C923.36 351.871 922 353.501 922 356.221C922 367.111 941.06 375.011 956.58 375.011C976.18 375.011 987.58 361.671 987.58 346.421C987.58 328.721 971.52 322.421 953.82 316.201C936.12 309.661 918.69 302.861 918.69 283.251C918.69 263.921 935.03 256.301 953.27 256.301C972.88 256.301 991.39 264.191 991.39 277.811C991.39 282.711 988.67 286.811 985.67 286.811C982.67 286.811 982.67 284.091 982.67 283.001C982.67 280.821 984.03 279.461 984.03 276.471C984.03 268.031 970.42 260.671 953.03 260.671C938.87 260.671 924.71 266.391 924.71 282.181C924.71 298.791 940.5 304.781 957.39 311.051C975.39 317.851 994.14 324.931 994.14 346.441C994.14 367.681 976.45 379.391 955.48 379.391C937.24 379.391 914.37 370.951 914.37 354.881C914.37 349.711 916.82 346.171 920.37 346.171C923.36 346.151 923.36 348.601 923.36 349.691Z" fill="black"/>
<path d="M675.85 305.581C662.78 300.681 646.72 295.511 646.72 282.711C646.72 277.261 649.72 271.001 652.72 268.821C651.668 271.983 651.114 275.289 651.08 278.621C651.08 291.151 664.97 296.051 680.49 301.501C700.36 308.301 723.24 317.021 723.24 345.061C723.24 372.831 701.18 387.541 670.69 387.541C642.91 387.541 621.69 375.011 621.69 355.411C621.69 344.241 628.49 335.801 638.02 335.801C643.74 335.801 651.64 338.801 651.64 349.141C651.64 355.141 649.46 359.491 648.91 360.041L644.27 356.001C645.077 353.816 645.536 351.518 645.63 349.191C645.63 344.021 642.09 341.841 638 341.841C631.47 341.841 627.11 347.291 627.11 355.191C627.11 371.791 647.53 383.191 671.49 383.191C698.99 383.191 716.15 367.941 716.15 345.341C716.15 320.831 695.73 312.931 675.85 305.581ZM672.58 248.131C701.72 248.131 719.69 259.841 719.69 277.541C719.69 288.971 712.61 297.141 703.35 297.141C697.63 297.141 689.46 294.141 689.46 283.531C689.37 279.77 690.416 276.069 692.46 272.911L697.09 276.991C696.245 279.165 695.785 281.469 695.73 283.801C695.73 289.241 699.27 291.151 703.35 291.151C709.61 291.151 713.97 285.701 713.97 277.811C713.97 263.651 698.72 252.491 672.31 252.491C646.99 252.491 632.01 263.921 632.01 283.251C632.01 306.401 653.01 314.561 671.49 321.371C686.74 327.371 701.17 332.541 701.17 345.601C701.17 351.871 698.17 359.761 694.09 363.601C696.81 357.881 696.81 354.881 696.81 352.981C696.81 337.181 681.57 331.741 665.5 325.751C646.44 318.671 625.75 311.321 625.75 285.181C625.75 258.751 646.44 248.131 672.58 248.131ZM641 349.691C641 351.871 639.64 353.501 639.64 356.221C639.64 367.111 658.7 375.011 674.22 375.011C693.82 375.011 705.22 361.671 705.22 346.421C705.22 328.721 689.15 322.421 671.45 316.201C653.75 309.661 636.33 302.861 636.33 283.251C636.33 263.921 652.67 256.301 670.91 256.301C690.51 256.301 709.03 264.191 709.03 277.811C709.03 282.711 706.3 286.811 703.31 286.811C700.32 286.811 700.31 284.091 700.31 283.001C700.31 280.821 701.68 279.461 701.68 276.471C701.68 268.031 688.06 260.671 670.68 260.671C656.52 260.671 642.36 266.391 642.36 282.181C642.36 298.791 658.15 304.781 675.03 311.051C693.03 317.851 711.79 324.931 711.79 346.441C711.79 367.681 694.09 379.391 673.13 379.391C654.89 379.391 632.01 370.951 632.01 354.881C632.01 349.711 634.46 346.171 638.01 346.171C641 346.151 641 348.601 641 349.691Z" fill="black"/>
<path d="M1020 250.85L1049.41 248.13V254.66H1020V250.85ZM1102.23 381.27C1098.15 384.27 1090.23 388.62 1076.91 388.62C1056.49 388.62 1042.91 379.1 1042.91 350.51V264.74H1020V258.47H1049.41V350.47C1049.41 375.24 1060.03 383.96 1078.54 383.96C1089.16 383.96 1094.6 380.96 1100.87 376.33L1102.23 381.27ZM1060.03 204.84V350.51C1060.03 364.94 1063.56 374.51 1072.03 379.37C1060.86 377.19 1053.78 369.57 1053.78 350.51V243.23L1056.23 204.84H1060.03ZM1070.92 204.84V248.13H1099.78V254.66H1064.38V204.84H1070.92ZM1099.78 264.74H1070.92V351.05C1070.92 368.21 1076.09 373.1 1082.63 373.1C1087.8 373.1 1094.06 370.38 1098.42 366.84L1099.78 371.74C1096.78 373.92 1090.25 378.28 1082.35 378.28C1072.28 378.28 1064.35 371.47 1064.35 350.51V258.51H1099.75L1099.78 264.74Z" fill="black"/>
<path d="M1173.86 317.561C1137.92 317.561 1124.86 332.561 1124.86 351.051C1124.86 368.211 1135.75 382.361 1162.44 382.361C1181.77 382.361 1197.29 375.011 1204.37 352.411C1202.46 373.411 1189.66 387.811 1161.62 387.811C1134.62 387.811 1119.14 374.471 1119.14 351.871C1119.14 327.871 1136.3 313.201 1173.05 313.201H1203.28V317.561H1173.86ZM1148.54 278.081L1153.17 274.001C1154.76 277.314 1155.59 280.937 1155.62 284.611C1155.62 295.511 1146.62 297.961 1141.46 297.961C1133.02 297.961 1126.21 291.151 1126.21 279.441C1126.21 260.381 1143.64 248.131 1172.21 248.131C1203.21 248.131 1224.76 262.561 1224.76 301.771V366.001H1218.22V302.001C1218.22 268.241 1201.89 252.451 1172.75 252.451C1148.75 252.451 1131.91 263.341 1131.91 279.671C1131.91 287.841 1136.27 292.201 1141.71 292.201C1145.25 292.201 1149.88 290.291 1149.88 284.031C1149.92 281.969 1149.46 279.928 1148.54 278.081ZM1203.27 321.921C1203.27 360.041 1187.2 378.011 1166.27 378.011C1149.11 378.011 1140.13 365.751 1140.13 352.411C1140.13 341.521 1146.39 334.711 1157.55 332.541C1154.3 334.738 1151.63 337.696 1149.78 341.159C1147.93 344.622 1146.96 348.485 1146.94 352.411C1146.94 362.491 1153.47 372.561 1166.81 372.561C1183.97 372.561 1196.49 355.951 1197.58 326.561L1174.71 326.011C1144.71 325.191 1135.77 337.171 1135.77 353.011C1135.77 361.721 1138.49 372.611 1151.84 378.061C1134.68 373.431 1129.24 362.541 1129.24 350.831C1129.24 334.761 1139.31 321.971 1174.44 321.971L1203.27 321.921ZM1244.11 370.381V375.281H1207.62V302.001C1207.62 271.781 1193.74 260.611 1174.13 260.611C1158.61 260.611 1143.13 267.691 1143.13 276.131C1143.13 279.401 1145.59 281.311 1145.59 284.031C1145.59 285.121 1145.59 287.841 1142.59 287.841C1139.05 287.841 1136.59 284.031 1136.59 278.841C1136.59 264.951 1154.59 256.241 1174.16 256.241C1196.76 256.241 1213.91 267.671 1213.91 301.441V370.321L1244.11 370.381ZM1197 301.501C1197 282.711 1192.37 272.361 1187.2 267.191C1196.2 270.461 1203.27 281.621 1203.27 300.681V308.851H1197V301.501ZM1244.11 379.641V382.361L1207.62 385.091V379.641H1244.11Z" fill="black"/>
<path d="M1252.28 375.28V372.83L1275.42 370.38V206.74H1282V375.28H1252.28ZM1323.89 379.64V385.09H1252.28V379.64H1323.89ZM1252.55 193.13V190.41L1303.74 187.68V366.84L1296.93 366.03V193.13H1252.55ZM1292.3 196.94V370.38L1323.89 372.83V375.28H1286.59V202.39H1252.59V196.94H1292.3Z" fill="black"/>
<path d="M1331.24 375.28V372.83L1354.38 370.38V206.74H1360.92V375.28H1331.24ZM1402.85 379.64V385.09H1331.24V379.64H1402.85ZM1331.51 193.13V190.41L1382.7 187.68V366.84L1375.89 366.03V193.13H1331.51ZM1371.27 196.94V370.38L1402.85 372.83V375.28H1365.55V202.39H1331.55V196.94H1371.27Z" fill="black"/>
<path d="M1405.57 250.85H1470.1V256.3H1405.57V250.85ZM1439.34 421.57C1447.51 421.57 1453.22 418.03 1467.65 381.27L1430.08 265.83L1405.57 263.38V260.65H1435L1473.94 379.65C1458.14 421.04 1450.25 426.75 1440.18 426.75C1431.46 426.75 1423.02 422.67 1423.02 414.75C1423.02 411.49 1424.65 410.12 1426.56 410.12C1428.2 410.12 1430.1 411.22 1430.37 414.21C1430.62 417.76 1430.35 421.57 1439.34 421.57ZM1540.63 260.11V262.83L1524.83 265.28L1481.27 387C1465.75 430.84 1454.58 436.56 1440.43 436.56C1422.18 436.56 1412.66 427.56 1412.66 415.05C1412.66 406.05 1417.28 399.53 1426.27 399.53C1434.44 399.53 1440.97 404.97 1441.52 416.13H1435.25C1434.98 408.24 1431.17 405.79 1426.54 405.79C1420.82 405.79 1418.65 409.33 1418.65 414.79C1418.65 425.14 1426 431.13 1440.43 431.13C1452.13 431.13 1461.43 426.77 1476.91 383.48L1521.57 260.14L1540.63 260.11ZM1419.19 269.11L1426.81 270.2L1463 381.27L1459.45 390.8L1419.19 269.11ZM1446.42 260.67C1457.04 292.53 1469.29 329.83 1480.18 361.96L1476.64 372.31L1439.64 260.67H1446.42ZM1470.1 263.4L1453.5 265.85L1451.59 260.67H1470.1V263.4ZM1540.63 256.32H1518L1482.87 355.16L1479.87 346.44L1514.72 250.87H1540.59L1540.63 256.32ZM1509.86 250.87L1508 256.3H1490.58V250.85L1509.86 250.87ZM1490.53 262.87V260.15H1506.59L1504.41 265.32L1490.53 262.87Z" fill="black"/>
<path d="M404.452 219.088L434.179 213.008C435.182 208.294 435.695 203.466 435.695 198.599C435.683 188.298 433.378 178.237 429.065 169.097C407.172 150.836 381.018 137.512 352.313 130.834C343.668 132.639 335.404 136.092 327.989 141.048C316.606 148.658 307.736 159.472 302.498 172.123C297.261 184.773 295.893 198.693 298.567 212.121C300.459 221.626 304.316 230.582 309.842 238.437L339.551 232.361C333.85 227.818 329.377 221.891 326.573 215.121C323.304 207.231 322.449 198.549 324.115 190.173C325.781 181.797 329.894 174.104 335.932 168.065C341.971 162.026 349.665 157.914 358.041 156.248C366.416 154.582 375.098 155.437 382.988 158.705C390.878 161.973 397.621 167.508 402.366 174.608C407.11 181.709 409.643 190.057 409.643 198.597V198.599C409.635 205.818 407.821 212.849 404.452 219.088Z" fill="black"/>
<path fill-rule="evenodd" clip-rule="evenodd" d="M394.885 221.044C395.478 220.293 396.042 219.517 396.576 218.717C400.55 212.76 402.668 205.759 402.662 198.598C402.655 189.003 398.838 179.803 392.05 173.021C385.263 166.238 376.06 162.429 366.464 162.429C359.304 162.429 352.304 164.552 346.351 168.531C340.397 172.51 335.758 178.165 333.019 184.781C330.28 191.397 329.565 198.677 330.964 205.699C332.363 212.722 335.813 219.171 340.878 224.233C343.333 226.685 346.114 228.759 349.127 230.403L394.885 221.044ZM378.327 198.597C378.327 205.148 373.016 210.459 366.464 210.459C359.913 210.459 354.602 205.148 354.602 198.597C354.602 192.046 359.913 186.735 366.464 186.735C373.016 186.735 378.327 192.046 378.327 198.597Z" fill="black"/>
<path d="M463.551 207.001L440.255 211.765C441.03 207.449 441.429 203.044 441.434 198.599V198.597C441.434 191.384 440.393 184.25 438.376 177.406C447.755 186.354 456.201 196.273 463.551 207.001Z" fill="black"/>
<path d="M313.459 145.579C321.045 137.996 330.134 132.162 340.087 128.421C330.294 126.828 320.244 126 310 126C303.554 126 297.184 126.328 290.907 126.968C273.186 145.651 262.301 170.877 262.301 198.597C262.301 215.593 266.394 231.653 273.645 245.84L303.755 239.682C301.198 235.779 298.999 231.627 297.197 227.274C291.525 213.575 290.043 198.502 292.938 183.96C295.832 169.419 302.974 156.062 313.459 145.579Z" fill="black"/>
<path d="M269.079 246.774C261.865 232.248 257.806 215.889 257.806 198.597C257.806 171.569 267.719 146.818 284.101 127.789C262.605 130.783 242.286 137.452 223.797 147.139C217.982 163.212 214.811 180.54 214.811 198.593C214.811 214.929 217.408 230.67 222.21 245.425L243.709 249.826C245.744 250.242 245.728 253.155 243.688 253.549L226.458 256.874C231.02 267.792 236.824 278.068 243.692 287.523L248.316 251.74L254.678 300.968C282.424 331.24 322.268 350.25 366.464 350.25C412.188 350.25 453.255 329.905 481.084 297.791L428.628 287.676C411.003 300.012 389.564 307.255 366.464 307.255C328.527 307.255 295.07 287.718 275.628 258.173L252.952 253.8C250.912 253.407 250.896 250.493 252.931 250.077L269.079 246.774Z" fill="black"/>
<path d="M281.926 259.387C300.857 285.639 331.7 302.76 366.464 302.76C387.013 302.76 406.191 296.778 422.349 286.465L281.926 259.387Z" fill="black"/>
<path d="M210.832 198.593C210.832 182.011 213.483 165.595 218.63 149.952C186.284 168.229 159.955 195.911 143.358 229.286L217.76 244.514C213.207 229.773 210.832 214.305 210.832 198.593Z" fill="black"/>
<path d="M476.533 308.632C479.724 305.439 482.769 302.116 485.659 298.673L495.656 300.601C495.884 304.371 496 308.172 496 312C496 337.792 490.75 362.358 481.261 384.687C462.372 374.028 442.607 366.816 422.262 363.189C379.082 355.48 350.136 366.914 319.497 379.016L319.491 379.018C303.237 385.448 286.602 392.017 266.984 396.194L255.559 307.781C255.843 308.07 256.129 308.358 256.415 308.644C285.602 337.831 325.187 354.229 366.463 354.229C386.913 354.285 407.172 350.284 426.065 342.457C444.959 334.63 462.112 323.133 476.533 308.632Z" fill="black"/>
<path d="M222.469 257.644C227.668 270.323 234.541 282.315 242.948 293.281L229.084 400.562L228.983 400.564C190.264 401.331 168.04 391.191 144.501 380.413C141.534 379.053 138.514 377.669 135.408 376.283C128.029 356.249 124 334.595 124 312C124 299.674 125.199 287.629 127.486 275.974L222.469 257.644Z" fill="black"/>
<path d="M268.245 405.949H267.253C255.737 408.358 243.19 409.96 229.093 410.27C227.569 410.33 226.114 410.34 224.58 410.34C187.484 410.34 165.57 400.299 142.42 389.69C141.802 389.407 141.183 389.123 140.564 388.84C143.25 394.754 146.238 400.503 149.506 406.067C171.282 415.947 193.015 424.647 228.983 423.935C267.015 423.118 293.732 412.579 319.491 402.388L319.497 402.386C350.136 390.284 379.082 378.85 422.262 386.56C439.355 389.607 456.039 395.184 472.138 403.211C474.019 399.875 475.799 396.476 477.476 393.017C459.482 383.042 440.696 376.267 421.385 372.795C379.604 365.345 351.306 376.518 321.337 388.35L321.324 388.355C304.875 394.857 288.073 401.493 268.218 405.745L268.245 405.949Z" fill="black"/>
<path d="M460.539 421.265C448.07 416.042 435.285 412.252 422.262 409.93C379.082 402.221 350.136 413.655 319.497 425.757L319.491 425.759C293.732 435.949 267.015 446.488 228.983 447.305C206.467 447.751 189.529 444.509 174.666 439.597C168.96 433.547 163.655 427.114 158.793 420.341C176.74 427.844 196.226 433.71 224.58 433.71C226.114 433.71 227.569 433.7 229.093 433.64C268.011 432.784 295.116 422.085 321.324 411.725L321.337 411.721C351.306 399.888 379.604 388.716 421.385 396.166C437.116 398.994 452.497 404.013 467.386 411.169C465.212 414.612 462.928 417.979 460.539 421.265Z" fill="black"/>
<path d="M422.262 433.299C430.184 434.711 438.018 436.667 445.746 439.158C448.825 435.873 451.785 432.477 454.621 428.975C443.757 424.716 432.661 421.563 421.385 419.536C379.604 412.086 351.306 423.259 321.337 435.091L321.324 435.096C295.116 445.456 268.011 456.154 229.093 457.011C227.569 457.071 226.114 457.081 224.58 457.081C211.085 457.081 199.599 455.752 189.331 453.55C196.529 459.692 204.201 465.295 212.285 470.295C217.507 470.653 223.051 470.791 228.983 470.674C267.015 469.857 293.732 459.318 319.491 449.128L319.497 449.125C350.136 437.023 379.082 425.589 422.262 433.299Z" fill="black"/>
<path d="M426.027 457.383C424.775 457.132 423.519 456.894 422.262 456.669C379.082 448.96 350.136 460.394 319.497 472.496L319.491 472.498C301.244 479.716 282.517 487.11 259.628 491.099C249.648 488.298 240.008 484.685 230.783 480.336C268.799 479.212 295.497 468.674 321.324 458.465L321.337 458.46C351.306 446.627 379.604 435.455 421.385 442.905C427.027 443.919 432.624 445.216 438.17 446.791C434.279 450.492 430.227 454.027 426.027 457.383Z" fill="black"/>
<path d="M314.209 497.953C312.81 497.984 311.407 498 310 498C300.392 498 290.954 497.271 281.738 495.867C295.946 491.863 308.739 486.81 321.324 481.835L321.337 481.83C349.839 470.577 376.829 459.921 415.345 465.313C408.821 469.804 401.997 473.89 394.908 477.533C365.873 477.548 343.191 486.507 319.497 495.866L319.491 495.868C317.736 496.563 315.976 497.259 314.209 497.953Z" fill="black"/>
</svg>
