<svg width="1669" height="623" viewBox="0 0 1669 623" fill="none" xmlns="http://www.w3.org/2000/svg">
<path d="M785.58 248.131V253.581H737.12V250.851L785.58 248.131ZM845.21 318.131C845.21 362.511 826.97 378.031 803.55 378.031C779.55 378.031 768.43 363.601 768.43 329.561V263.101H737.12V257.931H774.69V332.261C774.69 360.311 784.5 372.561 804.37 372.561C825.88 372.561 838.68 355.951 838.68 317.831V267.191H845.21V318.131ZM764.07 330.651C764.07 363.051 773.88 382.381 803.55 382.381C825.61 382.381 838.95 370.671 845.21 349.161C843.58 373.401 831.87 387.831 805.21 387.831C771.21 387.831 757.56 367.411 757.56 329.831V267.191H764.09L764.07 330.651ZM785.58 332.281C785.58 346.171 787.49 360.601 789.67 364.961C782.59 359.781 779.05 347.531 779.05 330.381V257.931H785.58V332.281ZM866.72 253.601H818V250.871L866.73 248.151L866.72 253.601ZM849.57 375.831V263.101H818V257.931H855.84V370.651H889.84V375.831H849.57ZM849.57 385.091V379.641H889.87V382.361L849.57 385.091ZM860.19 366.301V257.931H866.72V366.301H860.19Z" fill="white"/>
<path d="M958.21 305.581C945.14 300.681 929.08 295.511 929.08 282.711C929.08 277.261 932.08 271.001 935.08 268.821C934.031 271.983 933.481 275.289 933.45 278.621C933.45 291.151 947.33 296.051 962.85 301.501C982.73 308.301 1005.6 317.021 1005.6 345.061C1005.6 372.831 983.54 387.541 953.05 387.541C925.28 387.541 904.05 375.011 904.05 355.411C904.05 344.241 910.86 335.801 920.39 335.801C926.1 335.801 934 338.801 934 349.141C934 355.141 931.82 359.491 931.28 360.041L926.63 356.001C927.437 353.816 927.896 351.518 927.99 349.191C927.99 344.021 924.45 341.841 920.37 341.841C913.83 341.841 909.47 347.291 909.47 355.191C909.47 371.791 929.9 383.191 953.86 383.191C981.36 383.191 998.51 367.941 998.51 345.341C998.51 320.831 978.09 312.931 958.21 305.581ZM955 248.131C984.13 248.131 1002.1 259.841 1002.1 277.541C1002.1 288.971 995.02 297.141 985.76 297.141C980.05 297.141 971.88 294.141 971.88 283.531C971.793 279.77 972.838 276.07 974.88 272.911L979.51 276.991C978.665 279.165 978.205 281.469 978.15 283.801C978.15 289.241 981.69 291.151 985.77 291.151C992.04 291.151 996.39 285.701 996.39 277.811C996.39 263.651 981.15 252.491 954.73 252.491C929.41 252.491 914.44 263.921 914.44 283.251C914.44 306.401 935.44 314.561 953.92 321.371C969.17 327.371 983.59 332.541 983.59 345.601C983.59 351.871 980.59 359.761 976.52 363.601C979.24 357.881 979.24 354.881 979.24 352.981C979.24 337.181 963.99 331.741 947.93 325.751C928.87 318.671 908.17 311.321 908.17 285.181C908.11 258.751 928.81 248.131 955 248.131ZM923.36 349.691C923.36 351.871 922 353.501 922 356.221C922 367.111 941.06 375.011 956.58 375.011C976.18 375.011 987.58 361.671 987.58 346.421C987.58 328.721 971.52 322.421 953.82 316.201C936.12 309.661 918.69 302.861 918.69 283.251C918.69 263.921 935.03 256.301 953.27 256.301C972.88 256.301 991.39 264.191 991.39 277.811C991.39 282.711 988.67 286.811 985.67 286.811C982.67 286.811 982.67 284.091 982.67 283.001C982.67 280.821 984.03 279.461 984.03 276.471C984.03 268.031 970.42 260.671 953.03 260.671C938.87 260.671 924.71 266.391 924.71 282.181C924.71 298.791 940.5 304.781 957.39 311.051C975.39 317.851 994.14 324.931 994.14 346.441C994.14 367.681 976.45 379.391 955.48 379.391C937.24 379.391 914.37 370.951 914.37 354.881C914.37 349.711 916.82 346.171 920.37 346.171C923.36 346.151 923.36 348.601 923.36 349.691Z" fill="white"/>
<path d="M675.85 305.581C662.78 300.681 646.72 295.511 646.72 282.711C646.72 277.261 649.72 271.001 652.72 268.821C651.668 271.983 651.114 275.289 651.08 278.621C651.08 291.151 664.97 296.051 680.49 301.501C700.36 308.301 723.24 317.021 723.24 345.061C723.24 372.831 701.18 387.541 670.69 387.541C642.91 387.541 621.69 375.011 621.69 355.411C621.69 344.241 628.49 335.801 638.02 335.801C643.74 335.801 651.64 338.801 651.64 349.141C651.64 355.141 649.46 359.491 648.91 360.041L644.27 356.001C645.077 353.816 645.536 351.518 645.63 349.191C645.63 344.021 642.09 341.841 638 341.841C631.47 341.841 627.11 347.291 627.11 355.191C627.11 371.791 647.53 383.191 671.49 383.191C698.99 383.191 716.15 367.941 716.15 345.341C716.15 320.831 695.73 312.931 675.85 305.581ZM672.58 248.131C701.72 248.131 719.69 259.841 719.69 277.541C719.69 288.971 712.61 297.141 703.35 297.141C697.63 297.141 689.46 294.141 689.46 283.531C689.37 279.77 690.416 276.069 692.46 272.911L697.09 276.991C696.245 279.165 695.785 281.469 695.73 283.801C695.73 289.241 699.27 291.151 703.35 291.151C709.61 291.151 713.97 285.701 713.97 277.811C713.97 263.651 698.72 252.491 672.31 252.491C646.99 252.491 632.01 263.921 632.01 283.251C632.01 306.401 653.01 314.561 671.49 321.371C686.74 327.371 701.17 332.541 701.17 345.601C701.17 351.871 698.17 359.761 694.09 363.601C696.81 357.881 696.81 354.881 696.81 352.981C696.81 337.181 681.57 331.741 665.5 325.751C646.44 318.671 625.75 311.321 625.75 285.181C625.75 258.751 646.44 248.131 672.58 248.131ZM641 349.691C641 351.871 639.64 353.501 639.64 356.221C639.64 367.111 658.7 375.011 674.22 375.011C693.82 375.011 705.22 361.671 705.22 346.421C705.22 328.721 689.15 322.421 671.45 316.201C653.75 309.661 636.33 302.861 636.33 283.251C636.33 263.921 652.67 256.301 670.91 256.301C690.51 256.301 709.03 264.191 709.03 277.811C709.03 282.711 706.3 286.811 703.31 286.811C700.32 286.811 700.31 284.091 700.31 283.001C700.31 280.821 701.68 279.461 701.68 276.471C701.68 268.031 688.06 260.671 670.68 260.671C656.52 260.671 642.36 266.391 642.36 282.181C642.36 298.791 658.15 304.781 675.03 311.051C693.03 317.851 711.79 324.931 711.79 346.441C711.79 367.681 694.09 379.391 673.13 379.391C654.89 379.391 632.01 370.951 632.01 354.881C632.01 349.711 634.46 346.171 638.01 346.171C641 346.151 641 348.601 641 349.691Z" fill="white"/>
<path d="M1020 250.85L1049.41 248.13V254.66H1020V250.85ZM1102.23 381.27C1098.15 384.27 1090.23 388.62 1076.91 388.62C1056.49 388.62 1042.91 379.1 1042.91 350.51V264.74H1020V258.47H1049.41V350.47C1049.41 375.24 1060.03 383.96 1078.54 383.96C1089.16 383.96 1094.6 380.96 1100.87 376.33L1102.23 381.27ZM1060.03 204.84V350.51C1060.03 364.94 1063.56 374.51 1072.03 379.37C1060.86 377.19 1053.78 369.57 1053.78 350.51V243.23L1056.23 204.84H1060.03ZM1070.92 204.84V248.13H1099.78V254.66H1064.38V204.84H1070.92ZM1099.78 264.74H1070.92V351.05C1070.92 368.21 1076.09 373.1 1082.63 373.1C1087.8 373.1 1094.06 370.38 1098.42 366.84L1099.78 371.74C1096.78 373.92 1090.25 378.28 1082.35 378.28C1072.28 378.28 1064.35 371.47 1064.35 350.51V258.51H1099.75L1099.78 264.74Z" fill="white"/>
<path d="M1173.86 317.561C1137.92 317.561 1124.86 332.561 1124.86 351.051C1124.86 368.211 1135.75 382.361 1162.44 382.361C1181.77 382.361 1197.29 375.011 1204.37 352.411C1202.46 373.411 1189.66 387.811 1161.62 387.811C1134.62 387.811 1119.14 374.471 1119.14 351.871C1119.14 327.871 1136.3 313.201 1173.05 313.201H1203.28V317.561H1173.86ZM1148.54 278.081L1153.17 274.001C1154.76 277.314 1155.59 280.937 1155.62 284.611C1155.62 295.511 1146.62 297.961 1141.46 297.961C1133.02 297.961 1126.21 291.151 1126.21 279.441C1126.21 260.381 1143.64 248.131 1172.21 248.131C1203.21 248.131 1224.76 262.561 1224.76 301.771V366.001H1218.22V302.001C1218.22 268.241 1201.89 252.451 1172.75 252.451C1148.75 252.451 1131.91 263.341 1131.91 279.671C1131.91 287.841 1136.27 292.201 1141.71 292.201C1145.25 292.201 1149.88 290.291 1149.88 284.031C1149.92 281.969 1149.46 279.928 1148.54 278.081ZM1203.27 321.921C1203.27 360.041 1187.2 378.011 1166.27 378.011C1149.11 378.011 1140.13 365.751 1140.13 352.411C1140.13 341.521 1146.39 334.711 1157.55 332.541C1154.3 334.738 1151.63 337.696 1149.78 341.159C1147.93 344.622 1146.96 348.485 1146.94 352.411C1146.94 362.491 1153.47 372.561 1166.81 372.561C1183.97 372.561 1196.49 355.951 1197.58 326.561L1174.71 326.011C1144.71 325.191 1135.77 337.171 1135.77 353.011C1135.77 361.721 1138.49 372.611 1151.84 378.061C1134.68 373.431 1129.24 362.541 1129.24 350.831C1129.24 334.761 1139.31 321.971 1174.44 321.971L1203.27 321.921ZM1244.11 370.381V375.281H1207.62V302.001C1207.62 271.781 1193.74 260.611 1174.13 260.611C1158.61 260.611 1143.13 267.691 1143.13 276.131C1143.13 279.401 1145.59 281.311 1145.59 284.031C1145.59 285.121 1145.59 287.841 1142.59 287.841C1139.05 287.841 1136.59 284.031 1136.59 278.841C1136.59 264.951 1154.59 256.241 1174.16 256.241C1196.76 256.241 1213.91 267.671 1213.91 301.441V370.321L1244.11 370.381ZM1197 301.501C1197 282.711 1192.37 272.361 1187.2 267.191C1196.2 270.461 1203.27 281.621 1203.27 300.681V308.851H1197V301.501ZM1244.11 379.641V382.361L1207.62 385.091V379.641H1244.11Z" fill="white"/>
<path d="M1252.28 375.28V372.83L1275.42 370.38V206.74H1282V375.28H1252.28ZM1323.89 379.64V385.09H1252.28V379.64H1323.89ZM1252.55 193.13V190.41L1303.74 187.68V366.84L1296.93 366.03V193.13H1252.55ZM1292.3 196.94V370.38L1323.89 372.83V375.28H1286.59V202.39H1252.59V196.94H1292.3Z" fill="white"/>
<path d="M1331.24 375.28V372.83L1354.38 370.38V206.74H1360.92V375.28H1331.24ZM1402.85 379.64V385.09H1331.24V379.64H1402.85ZM1331.51 193.13V190.41L1382.7 187.68V366.84L1375.89 366.03V193.13H1331.51ZM1371.27 196.94V370.38L1402.85 372.83V375.28H1365.55V202.39H1331.55V196.94H1371.27Z" fill="white"/>
<path d="M1405.57 250.85H1470.1V256.3H1405.57V250.85ZM1439.34 421.57C1447.51 421.57 1453.22 418.03 1467.65 381.27L1430.08 265.83L1405.57 263.38V260.65H1435L1473.94 379.65C1458.14 421.04 1450.25 426.75 1440.18 426.75C1431.46 426.75 1423.02 422.67 1423.02 414.75C1423.02 411.49 1424.65 410.12 1426.56 410.12C1428.2 410.12 1430.1 411.22 1430.37 414.21C1430.62 417.76 1430.35 421.57 1439.34 421.57ZM1540.63 260.11V262.83L1524.83 265.28L1481.27 387C1465.75 430.84 1454.58 436.56 1440.43 436.56C1422.18 436.56 1412.66 427.56 1412.66 415.05C1412.66 406.05 1417.28 399.53 1426.27 399.53C1434.44 399.53 1440.97 404.97 1441.52 416.13H1435.25C1434.98 408.24 1431.17 405.79 1426.54 405.79C1420.82 405.79 1418.65 409.33 1418.65 414.79C1418.65 425.14 1426 431.13 1440.43 431.13C1452.13 431.13 1461.43 426.77 1476.91 383.48L1521.57 260.14L1540.63 260.11ZM1419.19 269.11L1426.81 270.2L1463 381.27L1459.45 390.8L1419.19 269.11ZM1446.42 260.67C1457.04 292.53 1469.29 329.83 1480.18 361.96L1476.64 372.31L1439.64 260.67H1446.42ZM1470.1 263.4L1453.5 265.85L1451.59 260.67H1470.1V263.4ZM1540.63 256.32H1518L1482.87 355.16L1479.87 346.44L1514.72 250.87H1540.59L1540.63 256.32ZM1509.86 250.87L1508 256.3H1490.58V250.85L1509.86 250.87ZM1490.53 262.87V260.15H1506.59L1504.41 265.32L1490.53 262.87Z" fill="white"/>
<path d="M405.452 218.088L435.179 212.008C436.182 207.294 436.695 202.466 436.695 197.599C436.683 187.298 434.378 177.237 430.065 168.097C408.172 149.836 382.018 136.512 353.313 129.834C344.668 131.639 336.404 135.092 328.989 140.048C317.606 147.658 308.736 158.472 303.498 171.123C298.261 183.773 296.893 197.693 299.567 211.121C301.459 220.626 305.316 229.582 310.842 237.437L340.551 231.361C334.85 226.818 330.377 220.891 327.573 214.121C324.304 206.231 323.449 197.549 325.115 189.173C326.781 180.797 330.894 173.104 336.932 167.065C342.971 161.026 350.665 156.914 359.041 155.248C367.416 153.582 376.098 154.437 383.988 157.705C391.878 160.973 398.621 166.508 403.366 173.608C408.11 180.709 410.643 189.057 410.643 197.597V197.599C410.635 204.818 408.821 211.849 405.452 218.088Z" fill="white"/>
<path fill-rule="evenodd" clip-rule="evenodd" d="M395.885 220.044C396.478 219.293 397.042 218.517 397.576 217.717C401.55 211.76 403.668 204.759 403.662 197.598C403.655 188.003 399.838 178.803 393.05 172.021C386.263 165.238 377.06 161.429 367.464 161.429C360.304 161.429 353.304 163.552 347.351 167.531C341.397 171.51 336.758 177.165 334.019 183.781C331.28 190.397 330.565 197.677 331.964 204.699C333.363 211.722 336.813 218.171 341.878 223.233C344.333 225.685 347.114 227.759 350.127 229.403L395.885 220.044ZM379.327 197.597C379.327 204.148 374.016 209.459 367.464 209.459C360.913 209.459 355.602 204.148 355.602 197.597C355.602 191.046 360.913 185.735 367.464 185.735C374.016 185.735 379.327 191.046 379.327 197.597Z" fill="white"/>
<path d="M464.551 206.001L441.255 210.765C442.03 206.449 442.429 202.044 442.434 197.599V197.597C442.434 190.384 441.393 183.25 439.376 176.406C448.755 185.354 457.201 195.273 464.551 206.001Z" fill="white"/>
<path d="M314.459 144.579C322.045 136.996 331.134 131.162 341.087 127.421C331.294 125.828 321.244 125 311 125C304.554 125 298.184 125.328 291.907 125.968C274.186 144.651 263.301 169.877 263.301 197.597C263.301 214.593 267.394 230.653 274.645 244.84L304.755 238.682C302.198 234.779 299.999 230.627 298.197 226.274C292.525 212.575 291.043 197.502 293.938 182.96C296.832 168.419 303.974 155.062 314.459 144.579Z" fill="white"/>
<path d="M270.079 245.774C262.865 231.248 258.806 214.889 258.806 197.597C258.806 170.569 268.719 145.818 285.101 126.789C263.605 129.783 243.286 136.452 224.797 146.139C218.982 162.212 215.811 179.54 215.811 197.593C215.811 213.929 218.408 229.67 223.21 244.425L244.709 248.826C246.744 249.242 246.728 252.155 244.688 252.549L227.458 255.874C232.02 266.792 237.824 277.068 244.692 286.523L249.316 250.74L255.678 299.968C283.424 330.24 323.268 349.25 367.464 349.25C413.188 349.25 454.255 328.905 482.084 296.791L429.628 286.676C412.003 299.012 390.564 306.255 367.464 306.255C329.527 306.255 296.07 286.718 276.628 257.173L253.952 252.8C251.912 252.407 251.896 249.493 253.931 249.077L270.079 245.774Z" fill="white"/>
<path d="M282.926 258.387C301.857 284.639 332.7 301.76 367.464 301.76C388.013 301.76 407.191 295.778 423.349 285.465L282.926 258.387Z" fill="white"/>
<path d="M211.832 197.593C211.832 181.011 214.483 164.595 219.63 148.952C187.284 167.229 160.955 194.911 144.358 228.286L218.76 243.514C214.207 228.773 211.832 213.305 211.832 197.593Z" fill="white"/>
<path d="M477.533 307.632C480.724 304.439 483.769 301.116 486.659 297.673L496.656 299.601C496.884 303.371 497 307.172 497 311C497 336.792 491.75 361.358 482.261 383.687C463.372 373.028 443.607 365.816 423.262 362.189C380.082 354.48 351.136 365.914 320.497 378.016L320.491 378.018C304.237 384.448 287.602 391.017 267.984 395.194L256.559 306.781C256.843 307.07 257.129 307.358 257.415 307.644C286.602 336.831 326.187 353.229 367.463 353.229C387.913 353.285 408.172 349.284 427.065 341.457C445.959 333.63 463.112 322.133 477.533 307.632Z" fill="white"/>
<path d="M223.469 256.644C228.668 269.323 235.541 281.315 243.948 292.281L230.084 399.562L229.983 399.564C191.264 400.331 169.04 390.191 145.501 379.413C142.534 378.053 139.514 376.669 136.408 375.283C129.029 355.249 125 333.595 125 311C125 298.674 126.199 286.629 128.486 274.974L223.469 256.644Z" fill="white"/>
<path d="M269.245 404.949H268.253C256.737 407.358 244.19 408.96 230.093 409.27C228.569 409.33 227.114 409.34 225.58 409.34C188.484 409.34 166.57 399.299 143.42 388.69C142.802 388.407 142.183 388.123 141.564 387.84C144.25 393.754 147.238 399.503 150.506 405.067C172.282 414.947 194.015 423.647 229.983 422.935C268.015 422.118 294.732 411.579 320.491 401.388L320.497 401.386C351.136 389.284 380.082 377.85 423.262 385.56C440.355 388.607 457.039 394.184 473.138 402.211C475.019 398.875 476.799 395.476 478.476 392.017C460.482 382.042 441.696 375.267 422.385 371.795C380.604 364.345 352.306 375.518 322.337 387.35L322.324 387.355C305.875 393.857 289.073 400.493 269.218 404.745L269.245 404.949Z" fill="white"/>
<path d="M461.539 420.265C449.07 415.042 436.285 411.252 423.262 408.93C380.082 401.221 351.136 412.655 320.497 424.757L320.491 424.759C294.732 434.949 268.015 445.488 229.983 446.305C207.467 446.751 190.529 443.509 175.666 438.597C169.96 432.547 164.655 426.114 159.793 419.341C177.74 426.844 197.226 432.71 225.58 432.71C227.114 432.71 228.569 432.7 230.093 432.64C269.011 431.784 296.116 421.085 322.324 410.725L322.337 410.721C352.306 398.888 380.604 387.716 422.385 395.166C438.116 397.994 453.497 403.013 468.386 410.169C466.212 413.612 463.928 416.979 461.539 420.265Z" fill="white"/>
<path d="M423.262 432.299C431.184 433.711 439.018 435.667 446.746 438.158C449.825 434.873 452.785 431.477 455.621 427.975C444.757 423.716 433.661 420.563 422.385 418.536C380.604 411.086 352.306 422.259 322.337 434.091L322.324 434.096C296.116 444.456 269.011 455.154 230.093 456.011C228.569 456.071 227.114 456.081 225.58 456.081C212.085 456.081 200.599 454.752 190.331 452.55C197.529 458.692 205.201 464.295 213.285 469.295C218.507 469.653 224.051 469.791 229.983 469.674C268.015 468.857 294.732 458.318 320.491 448.128L320.497 448.125C351.136 436.023 380.082 424.589 423.262 432.299Z" fill="white"/>
<path d="M427.027 456.383C425.775 456.132 424.519 455.894 423.262 455.669C380.082 447.96 351.136 459.394 320.497 471.496L320.491 471.498C302.244 478.716 283.517 486.11 260.628 490.099C250.648 487.298 241.008 483.685 231.783 479.336C269.799 478.212 296.497 467.674 322.324 457.465L322.337 457.46C352.306 445.627 380.604 434.455 422.385 441.905C428.027 442.919 433.624 444.216 439.17 445.791C435.279 449.492 431.227 453.027 427.027 456.383Z" fill="white"/>
<path d="M315.209 496.953C313.81 496.984 312.407 497 311 497C301.392 497 291.954 496.271 282.738 494.867C296.946 490.863 309.739 485.81 322.324 480.835L322.337 480.83C350.839 469.577 377.829 458.921 416.345 464.313C409.821 468.804 402.997 472.89 395.908 476.533C366.873 476.548 344.191 485.507 320.497 494.866L320.491 494.868C318.736 495.563 316.976 496.259 315.209 496.953Z" fill="white"/>
</svg>
